<svg id="visual" viewBox="0 0 900 600" width="900" height="600" xmlns="http://www.w3.org/2000/svg" xmlns:xlink="http://www.w3.org/1999/xlink" version="1.1"><path d="M0 181L90 211L180 145L270 163L360 85L450 211L540 139L630 175L720 199L810 109L900 121L900 0L810 0L720 0L630 0L540 0L450 0L360 0L270 0L180 0L90 0L0 0Z" fill="#2ecc71"></path><path d="M0 289L90 313L180 295L270 295L360 265L450 325L540 295L630 283L720 325L810 307L900 331L900 119L810 107L720 197L630 173L540 137L450 209L360 83L270 161L180 143L90 209L0 179Z" fill="#00b78d"></path><path d="M0 331L90 361L180 337L270 337L360 313L450 379L540 331L630 313L720 379L810 355L900 379L900 329L810 305L720 323L630 281L540 293L450 323L360 263L270 293L180 293L90 311L0 287Z" fill="#009f99"></path><path d="M0 379L90 451L180 385L270 391L360 415L450 421L540 373L630 403L720 427L810 451L900 439L900 377L810 353L720 377L630 311L540 329L450 377L360 311L270 335L180 335L90 359L0 329Z" fill="#008693"></path><path d="M0 439L90 511L180 439L270 475L360 463L450 463L540 451L630 487L720 499L810 517L900 481L900 437L810 449L720 425L630 401L540 371L450 419L360 413L270 389L180 383L90 449L0 377Z" fill="#1c6d82"></path><path d="M0 499L90 547L180 505L270 505L360 493L450 493L540 493L630 541L720 547L810 553L900 535L900 479L810 515L720 497L630 485L540 449L450 461L360 461L270 473L180 437L90 509L0 437Z" fill="#29556b"></path><path d="M0 601L90 601L180 601L270 601L360 601L450 601L540 601L630 601L720 601L810 601L900 601L900 533L810 551L720 545L630 539L540 491L450 491L360 491L270 503L180 503L90 545L0 497Z" fill="#2c3e50"></path></svg>